<svg width="540" height="80" viewBox="0 0 540 80" fill="none" xmlns="http://www.w3.org/2000/svg">
<path d="M540 80H0V0H540V80ZM21.5088 20L53.9092 60H73.9883L106.484 20H86.3086L78.8232 29.2578L71.3379 20H50.9951L68.6514 41.7715L64.0801 47.4287L41.8516 20H21.5088ZM115.795 20L93.5664 47.4287L91.3955 44.7412L81.2031 57.2871L83.3945 60H103.737L136.138 20H115.795ZM147.938 20L115.538 60H135.881L140.509 54.2852H175.709L180.338 60H200.681L168.28 20H147.938ZM202.981 20V60H221.039V52H244.067L255.667 60H278.981L266.811 51.5996C274.467 49.8281 278.981 42.9141 278.981 36C278.981 28 272.981 20 262.981 20H202.981ZM282.445 20V60H340.16C351.189 59.9999 360.16 51.0283 360.16 40C360.16 28.9715 351.189 20.0001 340.16 20H282.445ZM363.64 20V60H437.926V49.7139H381.697V45.1426H437.926V34.8564H381.697V30.2852H437.926V20H363.64ZM442.49 20V60H460.547V37.1426L500.433 60H518.49V20H500.433V42.8564L460.547 20H442.49ZM336.16 34.2852C339.703 34.2853 342.16 36.6858 342.16 40C342.16 43.314 339.703 45.7137 336.16 45.7139H300.445V34.2852H336.16ZM166.452 42.8564H149.767L158.109 32.5713L166.452 42.8564ZM258.41 33.7139C260.01 33.7139 260.925 34.5714 260.925 36C260.925 37.4284 260.01 38.2852 258.41 38.2852H221.039V33.7139H258.41Z" fill="#F70F0F"/>
</svg>
