<svg width="1312" height="369" viewBox="0 0 1312 369" fill="none" xmlns="http://www.w3.org/2000/svg">
<path d="M345.66 178.004H367.131V232.235C367.172 237.837 366.036 243.387 363.799 248.523C361.644 253.496 358.614 258.041 354.851 261.942C351.058 265.847 346.529 268.961 341.524 271.104C336.355 273.334 330.78 274.469 325.151 274.435C319.548 274.476 313.999 273.34 308.863 271.104C298.734 266.682 290.662 258.577 286.282 248.43C284.051 243.261 282.917 237.687 282.95 232.057V178.004H304.421V232.235C304.4 234.976 304.968 237.69 306.087 240.194C307.159 242.606 308.664 244.802 310.529 246.672C312.409 248.543 314.643 250.021 317.099 251.021C319.652 252.077 322.389 252.613 325.151 252.595C327.84 252.595 330.501 252.06 332.982 251.021C335.438 250.021 337.671 248.543 339.552 246.672C341.417 244.802 342.922 242.606 343.994 240.194C345.112 237.69 345.68 234.976 345.66 232.235V178.004Z" fill="#2C3E50"/>
<path d="M389.398 178.004H411.239V183.186C413.711 180.144 416.818 177.68 420.344 175.968C423.839 174.426 427.629 173.669 431.449 173.747C437.373 173.665 443.235 174.965 448.57 177.541C453.668 180.06 458.226 183.55 461.989 187.813C465.97 183.472 470.786 179.978 476.148 177.541C481.693 175 487.726 173.705 493.825 173.747C499.453 173.714 505.029 174.849 510.198 177.078C515.185 179.211 519.711 182.291 523.524 186.148C527.321 190.026 530.365 194.576 532.501 199.567C534.731 204.736 535.865 210.31 535.833 215.94V270.541H513.964V215.94C513.971 213.269 513.435 210.624 512.39 208.166C511.37 205.747 509.893 203.547 508.041 201.688C506.17 199.825 503.975 198.319 501.563 197.246C499.121 196.139 496.47 195.569 493.789 195.573C491.088 195.55 488.416 196.119 485.958 197.239C483.575 198.326 481.405 199.83 479.551 201.681C477.696 203.539 476.219 205.739 475.202 208.159C474.153 210.616 473.618 213.261 473.628 215.933V270.534H451.774V215.933C451.794 213.201 451.258 210.493 450.2 207.974C448.149 203.085 444.261 199.196 439.373 197.146C436.853 196.089 434.145 195.554 431.414 195.573C428.713 195.55 426.04 196.119 423.583 197.239C421.183 198.336 419.009 199.874 417.176 201.773C415.333 203.676 413.858 205.904 412.827 208.344C411.79 210.74 411.255 213.322 411.253 215.933V270.534H389.398V178.004Z" fill="#2C3E50"/>
<path d="M552.811 224.091C552.758 217.315 554.112 210.603 556.791 204.379C559.34 198.422 563.017 193.016 567.618 188.454C572.243 183.913 577.671 180.273 583.629 177.719C589.868 175.093 596.571 173.739 603.341 173.739C610.111 173.739 616.812 175.093 623.053 177.719C635.056 182.812 644.612 192.368 649.705 204.372C652.332 210.611 653.684 217.314 653.684 224.084C653.684 230.854 652.332 237.555 649.705 243.796C644.612 255.799 635.056 265.355 623.053 270.449C616.812 273.075 610.111 274.428 603.341 274.428C596.571 274.428 589.868 273.075 583.629 270.449C577.67 267.897 572.241 264.257 567.618 259.713C563.016 255.155 559.339 249.75 556.791 243.796C554.114 237.574 552.758 230.864 552.811 224.091ZM574.281 224.091C574.262 227.945 575.053 231.76 576.602 235.289C579.575 242.199 585.094 247.7 592.014 250.651C595.562 252.177 599.385 252.965 603.248 252.965C607.111 252.965 610.933 252.177 614.481 250.651C621.402 247.7 626.92 242.199 629.894 235.289C631.424 231.754 632.215 227.943 632.215 224.091C632.215 220.239 631.424 216.427 629.894 212.893C626.92 205.982 621.402 200.481 614.481 197.53C610.933 196.003 607.111 195.217 603.248 195.217C599.385 195.217 595.562 196.003 592.014 197.53C585.094 200.481 579.575 205.982 576.602 212.893C575.054 216.422 574.264 220.237 574.281 224.091ZM615.4 163.538H588.904L616.482 132.073H642.95L615.4 163.538Z" fill="#2C3E50"/>
<path d="M795.059 178.004H816.53V232.235C816.558 237.864 815.426 243.439 813.198 248.608C811.069 253.6 808.03 258.151 804.235 262.027C800.427 265.887 795.906 268.968 790.923 271.097C785.577 273.356 779.818 274.489 774.016 274.425C768.207 274.362 762.484 273.103 757.187 270.726C751.933 268.293 747.221 264.832 743.327 260.546C739.426 264.832 734.713 268.293 729.459 270.726C724.163 273.103 718.432 274.362 712.63 274.425C706.824 274.489 701.069 273.356 695.722 271.097C690.737 268.966 686.216 265.886 682.41 262.027C678.622 258.162 675.612 253.606 673.539 248.608C671.371 243.424 670.271 237.855 670.308 232.235V178.004H691.778V232.37C691.759 235.054 692.272 237.716 693.289 240.2C694.305 242.684 695.805 244.942 697.701 246.843C699.569 248.711 701.765 250.222 704.179 251.299C706.682 252.417 709.396 252.986 712.139 252.965C714.837 252.96 717.5 252.393 719.97 251.299C722.419 250.237 724.647 248.726 726.541 246.843C728.399 244.966 729.908 242.766 730.983 240.35C732.1 237.839 732.663 235.118 732.649 232.37V178.004H754.489V232.37C754.461 235.2 754.995 238.007 756.062 240.628C757.059 243.09 758.54 245.329 760.412 247.213C762.234 249.052 764.413 250.505 766.819 251.484C769.303 252.486 771.966 252.989 774.65 252.965C777.326 252.971 779.982 252.403 782.423 251.299C787.307 249.137 791.208 245.234 793.372 240.35C794.49 237.839 795.059 235.118 795.038 232.37L795.059 178.004Z" fill="#2C3E50"/>
<path d="M838.933 178.004H860.773V183.186C863.236 180.148 866.326 177.685 869.843 175.968C873.338 174.426 877.125 173.669 880.948 173.747C886.857 173.671 892.708 174.97 898.033 177.541C903.13 180.06 907.686 183.55 911.452 187.813C915.432 183.472 920.251 179.978 925.611 177.541C931.157 175 937.187 173.705 943.288 173.747C948.919 173.714 954.493 174.849 959.661 177.078C964.644 179.211 969.172 182.291 972.987 186.148C976.789 190.025 979.828 194.575 981.964 199.567C984.192 204.736 985.324 210.31 985.296 215.94V270.541H963.455V215.94C963.462 213.269 962.928 210.624 961.882 208.166C960.864 205.747 959.383 203.547 957.532 201.688C955.66 199.824 953.467 198.318 951.054 197.246C948.612 196.141 945.971 195.57 943.295 195.573C940.589 195.55 937.92 196.119 935.464 197.239C933.079 198.326 930.908 199.83 929.057 201.681C927.199 203.539 925.725 205.739 924.707 208.159C923.654 210.616 923.12 213.261 923.134 215.933V270.534H901.294V215.933C901.308 213.254 900.795 210.598 899.777 208.12C898.759 205.641 897.264 203.389 895.371 201.496C893.513 199.643 891.313 198.166 888.893 197.146C886.373 196.089 883.667 195.554 880.934 195.573C878.229 195.55 875.559 196.119 873.103 197.239C870.704 198.336 868.526 199.874 866.696 201.773C864.852 203.676 863.379 205.904 862.346 208.344C861.307 210.74 860.773 213.322 860.773 215.933V270.534H838.933V178.004Z" fill="#2C3E50"/>
<path d="M1068.95 178.004H1090.42V233.16C1090.43 237.759 1089.81 242.337 1088.56 246.764C1087.34 251.096 1085.38 255.188 1082.79 258.866C1080.12 262.624 1076.81 265.883 1073.01 268.491C1068.81 271.332 1064.1 273.342 1059.14 274.414V307.161H1037.67V274.25C1033.11 272.833 1028.8 270.709 1024.9 267.957C1021.17 265.331 1017.83 262.183 1015 258.61C1012.2 255.073 1010.02 251.103 1008.52 246.857C1006.97 242.458 1006.19 237.824 1006.22 233.16V178.004H1028.07V233.16C1028.04 235.839 1028.56 238.494 1029.57 240.973C1030.59 243.451 1032.09 245.703 1033.99 247.597C1035.85 249.462 1038.05 250.967 1040.47 252.039C1042.97 253.157 1045.68 253.725 1048.43 253.705C1051.11 253.702 1053.77 253.167 1056.26 252.132C1058.71 251.132 1060.95 249.653 1062.83 247.782C1064.69 245.913 1066.19 243.717 1067.27 241.304C1068.39 238.801 1068.96 236.087 1068.93 233.345L1068.95 178.004Z" fill="#2C3E50"/>
<path d="M1103.75 259.073C1103.71 257.033 1104.09 255.006 1104.85 253.113C1105.61 251.221 1106.75 249.502 1108.19 248.06C1109.6 246.589 1111.3 245.427 1113.18 244.646C1115.06 243.866 1117.08 243.484 1119.12 243.525C1121.16 243.517 1123.18 243.913 1125.07 244.691C1126.96 245.469 1128.68 246.615 1130.13 248.06C1131.57 249.506 1132.72 251.223 1133.5 253.113C1134.27 255.003 1134.67 257.028 1134.66 259.073C1134.71 261.108 1134.32 263.13 1133.55 265.01C1132.76 266.889 1131.6 268.586 1130.13 269.993C1128.68 271.437 1126.97 272.574 1125.07 273.337C1123.18 274.101 1121.15 274.474 1119.12 274.435C1117.09 274.461 1115.08 274.081 1113.21 273.318C1111.33 272.555 1109.63 271.425 1108.19 269.993C1106.76 268.561 1105.63 266.857 1104.87 264.982C1104.1 263.106 1103.72 261.097 1103.75 259.073Z" fill="#46BFB4"/>
<path d="M1150.03 199.474V178.003H1158.57V140.986H1180.04V178.003H1201.69V199.474H1180.04V270.548H1158.57V199.474H1150.03Z" fill="#2C3E50"/>
<path d="M1210.73 224.091C1210.67 217.315 1212.03 210.603 1214.71 204.379C1217.25 198.42 1220.93 193.012 1225.53 188.454C1230.16 183.913 1235.59 180.273 1241.55 177.719C1247.78 175.093 1254.49 173.74 1261.26 173.74C1268.03 173.74 1274.73 175.093 1280.97 177.719C1292.97 182.812 1302.53 192.368 1307.62 204.372C1310.25 210.611 1311.6 217.314 1311.6 224.084C1311.6 230.854 1310.25 237.556 1307.62 243.796C1302.53 255.799 1292.97 265.355 1280.97 270.449C1274.73 273.075 1268.03 274.427 1261.26 274.427C1254.49 274.427 1247.78 273.075 1241.55 270.449C1235.59 267.897 1230.16 264.257 1225.53 259.714C1220.93 255.159 1217.25 249.753 1214.71 243.796C1212.03 237.574 1210.67 230.864 1210.73 224.091ZM1232.2 224.091C1232.18 227.945 1232.97 231.761 1234.52 235.289C1237.48 242.205 1243 247.708 1249.93 250.651C1253.48 252.178 1257.3 252.965 1261.16 252.965C1265.02 252.965 1268.85 252.178 1272.4 250.651C1279.32 247.701 1284.83 242.199 1287.81 235.289C1289.34 231.754 1290.13 227.943 1290.13 224.091C1290.13 220.239 1289.34 216.428 1287.81 212.893C1284.83 205.982 1279.32 200.481 1272.4 197.531C1268.85 196.004 1265.02 195.216 1261.16 195.216C1257.3 195.216 1253.48 196.004 1249.93 197.531C1243 200.473 1237.48 205.977 1234.52 212.893C1232.97 216.421 1232.18 220.237 1232.2 224.091Z" fill="#2C3E50"/>
<path d="M72.7674 117.657H15.6885L101.3 203.268V146.19L72.7674 117.657Z" fill="#46BFB4"/>
<path d="M155.936 177.171C160.328 186.394 162.313 196.58 161.706 206.777C161.099 216.974 157.92 226.852 152.467 235.49C147.012 244.128 139.461 251.244 130.514 256.176C121.567 261.107 111.518 263.693 101.303 263.693C91.0874 263.693 81.0377 261.107 72.0915 256.176C63.1452 251.244 55.593 244.128 50.1388 235.49C44.6846 226.852 41.5062 216.974 40.8994 206.777C40.2927 196.58 42.2777 186.394 46.6692 177.171L17.1261 147.635C7.07435 162.842 1.33023 180.489 0.504083 198.7C-0.322065 216.91 3.80063 235.005 12.4341 251.06C21.0676 267.115 33.8893 280.532 49.5368 289.884C65.1844 299.237 83.073 304.175 101.303 304.175C119.532 304.175 137.421 299.237 153.069 289.884C168.716 280.532 181.538 267.115 190.171 251.06C198.804 235.005 202.928 216.91 202.101 198.7C201.275 180.489 195.531 162.842 185.479 147.635L155.936 177.171Z" fill="#2C3E50"/>
<path d="M185.479 62.0164L72.7671 174.729L101.299 203.268L242.558 62.0164H185.479Z" fill="#46BFB4"/>
</svg>
