<svg width="444" height="444" viewBox="0 0 444 444" fill="none" xmlns="http://www.w3.org/2000/svg">
<path d="M132.685 102.018H28.0298L184.999 258.987V154.332L132.685 102.018Z" fill="#46BFB4"/>
<path d="M285.177 211.136C293.229 228.047 296.868 246.723 295.756 265.419C294.643 284.117 288.815 302.228 278.815 318.065C268.814 333.902 254.968 346.95 238.564 355.992C222.161 365.034 203.736 369.776 185.006 369.776C166.276 369.776 147.849 365.034 131.446 355.992C115.043 346.95 101.196 333.902 91.1959 318.065C81.1957 302.228 75.3679 284.117 74.2554 265.419C73.1431 246.723 76.7825 228.047 84.8344 211.136L30.6668 156.982C12.2368 184.864 1.70487 217.22 0.190122 250.61C-1.32463 283.999 6.23437 317.176 22.0639 346.613C37.8935 376.05 61.4023 400.65 90.0922 417.797C118.782 434.945 151.581 444 185.006 444C218.429 444 251.229 434.945 279.919 417.797C308.609 400.65 332.117 376.05 347.947 346.613C363.776 317.176 371.336 283.999 369.821 250.61C368.307 217.22 357.775 184.864 339.345 156.982L285.177 211.136Z" fill="#2C3E50"/>
<path d="M339.345 0L132.686 206.66L185 258.987L444 0H339.345Z" fill="#46BFB4"/>
</svg>
